<svg width="276" height="40" viewBox="0 0 276 40" fill="none" xmlns="http://www.w3.org/2000/svg">
<rect width="276" height="40" rx="12" fill="#F2F2F3"/>
<path d="M102.364 27.624C102.172 27.624 102.023 27.5707 101.916 27.464C101.82 27.3573 101.772 27.2027 101.772 27V24.552C101.772 24.1147 101.991 23.896 102.428 23.896H103.468L102.684 24.12C103.303 23.4373 103.761 22.488 104.06 21.272C104.359 20.0453 104.508 18.4987 104.508 16.632V14.44C104.508 14.2053 104.567 14.0293 104.684 13.912C104.812 13.784 104.993 13.72 105.228 13.72H111.276C111.5 13.72 111.676 13.784 111.804 13.912C111.932 14.0293 111.996 14.2053 111.996 14.44V24.424L111.468 23.896H112.924C113.137 23.896 113.303 23.9547 113.42 24.072C113.537 24.1787 113.596 24.3387 113.596 24.552V27C113.596 27.416 113.399 27.624 113.004 27.624C112.801 27.624 112.647 27.5707 112.54 27.464C112.444 27.3573 112.396 27.2027 112.396 27V25H102.956V27C102.956 27.416 102.759 27.624 102.364 27.624ZM104.252 23.896H110.668V14.824H105.74V16.728C105.74 18.4453 105.617 19.88 105.372 21.032C105.137 22.184 104.764 23.1387 104.252 23.896ZM118.481 25.144C117.724 25.144 117.068 24.9787 116.513 24.648C115.958 24.3173 115.526 23.8533 115.217 23.256C114.918 22.648 114.769 21.9333 114.769 21.112C114.769 20.4933 114.854 19.9387 115.025 19.448C115.196 18.9467 115.446 18.52 115.777 18.168C116.108 17.816 116.497 17.5493 116.945 17.368C117.404 17.176 117.916 17.08 118.481 17.08C119.238 17.08 119.894 17.2453 120.449 17.576C121.004 17.9067 121.43 18.376 121.729 18.984C122.038 19.5813 122.193 20.2907 122.193 21.112C122.193 21.7307 122.108 22.2853 121.937 22.776C121.766 23.2667 121.516 23.6933 121.185 24.056C120.854 24.408 120.46 24.68 120.001 24.872C119.553 25.0533 119.046 25.144 118.481 25.144ZM118.481 24.104C118.961 24.104 119.382 23.9867 119.745 23.752C120.108 23.5173 120.385 23.176 120.577 22.728C120.78 22.28 120.881 21.7413 120.881 21.112C120.881 20.1413 120.662 19.4 120.225 18.888C119.798 18.376 119.217 18.12 118.481 18.12C117.99 18.12 117.564 18.2373 117.201 18.472C116.849 18.696 116.572 19.032 116.369 19.48C116.177 19.9173 116.081 20.4613 116.081 21.112C116.081 22.072 116.3 22.8133 116.737 23.336C117.174 23.848 117.756 24.104 118.481 24.104ZM127.576 25.144C126.808 25.144 126.141 24.9787 125.576 24.648C125.021 24.3067 124.589 23.8053 124.28 23.144C123.981 22.4827 123.832 21.672 123.832 20.712V19.512C123.832 18.4773 123.965 17.6133 124.232 16.92C124.509 16.2267 124.925 15.6667 125.48 15.24C126.045 14.8133 126.744 14.488 127.576 14.264L129.912 13.608C130.104 13.5547 130.264 13.56 130.392 13.624C130.53 13.688 130.616 13.8053 130.648 13.976C130.69 14.1573 130.664 14.312 130.568 14.44C130.482 14.568 130.344 14.6587 130.152 14.712L127.672 15.384C127.096 15.544 126.616 15.784 126.232 16.104C125.848 16.424 125.56 16.8187 125.368 17.288C125.176 17.7467 125.08 18.2693 125.08 18.856V19.48H124.856C124.984 19.0107 125.186 18.6053 125.464 18.264C125.741 17.9227 126.082 17.6613 126.488 17.48C126.904 17.288 127.362 17.192 127.864 17.192C128.536 17.192 129.128 17.352 129.64 17.672C130.152 17.992 130.546 18.4453 130.824 19.032C131.112 19.6187 131.256 20.3173 131.256 21.128C131.256 21.9387 131.101 22.648 130.792 23.256C130.493 23.8533 130.066 24.3173 129.512 24.648C128.968 24.9787 128.322 25.144 127.576 25.144ZM127.528 24.104C128.04 24.104 128.472 23.992 128.824 23.768C129.186 23.5333 129.464 23.1973 129.656 22.76C129.848 22.3227 129.944 21.7893 129.944 21.16C129.944 20.232 129.73 19.512 129.304 19C128.877 18.488 128.29 18.232 127.544 18.232C127.042 18.232 126.61 18.344 126.248 18.568C125.896 18.792 125.624 19.1173 125.432 19.544C125.24 19.96 125.144 20.4613 125.144 21.048C125.144 22.0507 125.352 22.8133 125.768 23.336C126.194 23.848 126.781 24.104 127.528 24.104ZM135.822 25.144C135.289 25.144 134.809 25.0427 134.382 24.84C133.966 24.6267 133.635 24.3387 133.39 23.976C133.145 23.6133 133.022 23.208 133.022 22.76C133.022 22.184 133.166 21.7307 133.454 21.4C133.753 21.0693 134.238 20.8347 134.91 20.696C135.593 20.5573 136.521 20.488 137.694 20.488H138.414V21.336H137.71C136.846 21.336 136.163 21.3787 135.662 21.464C135.171 21.5387 134.825 21.672 134.622 21.864C134.43 22.056 134.334 22.328 134.334 22.68C134.334 23.1173 134.483 23.4747 134.782 23.752C135.091 24.0293 135.507 24.168 136.03 24.168C136.457 24.168 136.83 24.0667 137.15 23.864C137.481 23.6613 137.737 23.384 137.918 23.032C138.11 22.68 138.206 22.2747 138.206 21.816V19.992C138.206 19.3307 138.073 18.856 137.806 18.568C137.539 18.2693 137.102 18.12 136.494 18.12C136.121 18.12 135.747 18.168 135.374 18.264C135.001 18.36 134.606 18.5147 134.19 18.728C134.041 18.8027 133.913 18.8293 133.806 18.808C133.699 18.776 133.614 18.7173 133.55 18.632C133.486 18.5467 133.449 18.4507 133.438 18.344C133.427 18.2267 133.449 18.1147 133.502 18.008C133.566 17.9013 133.662 17.816 133.79 17.752C134.259 17.5173 134.723 17.3467 135.182 17.24C135.641 17.1333 136.078 17.08 136.494 17.08C137.166 17.08 137.721 17.192 138.158 17.416C138.595 17.6293 138.921 17.96 139.134 18.408C139.347 18.8453 139.454 19.4107 139.454 20.104V24.44C139.454 24.6533 139.401 24.8187 139.294 24.936C139.198 25.0533 139.054 25.112 138.862 25.112C138.659 25.112 138.505 25.0533 138.398 24.936C138.291 24.8187 138.238 24.6533 138.238 24.44V23.192H138.382C138.297 23.5973 138.131 23.944 137.886 24.232C137.651 24.52 137.358 24.744 137.006 24.904C136.654 25.064 136.259 25.144 135.822 25.144ZM142.655 25C142.442 25 142.276 24.9413 142.159 24.824C142.042 24.7067 141.983 24.5413 141.983 24.328V17.896C141.983 17.6827 142.042 17.5173 142.159 17.4C142.276 17.2827 142.442 17.224 142.655 17.224H145.775C146.394 17.224 146.9 17.304 147.295 17.464C147.69 17.6133 147.983 17.8427 148.175 18.152C148.367 18.4507 148.463 18.824 148.463 19.272C148.463 19.7627 148.287 20.1787 147.935 20.52C147.594 20.8613 147.146 21.064 146.591 21.128V20.92C147.252 20.9413 147.77 21.128 148.143 21.48C148.527 21.832 148.719 22.2907 148.719 22.856C148.719 23.5173 148.474 24.04 147.983 24.424C147.492 24.808 146.799 25 145.903 25H142.655ZM143.215 24.12H145.855C146.378 24.12 146.778 24.008 147.055 23.784C147.343 23.5493 147.487 23.2187 147.487 22.792C147.487 22.3653 147.343 22.04 147.055 21.816C146.778 21.592 146.378 21.48 145.855 21.48H143.215V24.12ZM143.215 20.6H145.711C146.191 20.6 146.564 20.488 146.831 20.264C147.108 20.04 147.247 19.7307 147.247 19.336C147.247 18.9413 147.108 18.6373 146.831 18.424C146.564 18.2107 146.191 18.104 145.711 18.104H143.215V20.6ZM151.325 25.112C151.208 25.112 151.101 25.0853 151.005 25.032C150.92 24.9893 150.85 24.9147 150.797 24.808C150.754 24.7013 150.733 24.568 150.733 24.408V17.752C150.733 17.5387 150.786 17.3787 150.893 17.272C151 17.1653 151.144 17.112 151.325 17.112C151.517 17.112 151.661 17.1653 151.757 17.272C151.864 17.3787 151.917 17.5387 151.917 17.752V23.768H151.517L156.173 17.528C156.258 17.4107 156.36 17.3147 156.477 17.24C156.594 17.1547 156.744 17.112 156.925 17.112C157.053 17.112 157.16 17.1333 157.245 17.176C157.33 17.2187 157.394 17.2933 157.437 17.4C157.49 17.496 157.517 17.6293 157.517 17.8V24.472C157.517 24.6747 157.464 24.8347 157.357 24.952C157.261 25.0587 157.117 25.112 156.925 25.112C156.733 25.112 156.584 25.0587 156.477 24.952C156.381 24.8347 156.333 24.6747 156.333 24.472V18.44H156.733L152.061 24.696C151.986 24.8027 151.89 24.8987 151.773 24.984C151.666 25.0693 151.517 25.112 151.325 25.112ZM162.349 25.112C162.146 25.112 161.986 25.0533 161.869 24.936C161.752 24.8187 161.693 24.6533 161.693 24.44V18.264H159.357C158.952 18.264 158.749 18.088 158.749 17.736C158.749 17.576 158.802 17.4533 158.909 17.368C159.016 17.272 159.165 17.224 159.357 17.224H165.341C165.736 17.224 165.933 17.3947 165.933 17.736C165.933 17.9067 165.88 18.04 165.773 18.136C165.677 18.2213 165.533 18.264 165.341 18.264H162.989V24.44C162.989 24.6533 162.936 24.8187 162.829 24.936C162.733 25.0533 162.573 25.112 162.349 25.112ZM167.858 25C167.645 25 167.48 24.9413 167.362 24.824C167.245 24.7067 167.186 24.5413 167.186 24.328V17.768C167.186 17.544 167.24 17.3787 167.346 17.272C167.464 17.1653 167.629 17.112 167.842 17.112C168.045 17.112 168.2 17.1653 168.306 17.272C168.424 17.3787 168.482 17.544 168.482 17.768V19.992H170.834C171.826 19.992 172.578 20.2107 173.09 20.648C173.602 21.0747 173.858 21.6827 173.858 22.472C173.858 22.9947 173.736 23.448 173.49 23.832C173.256 24.2053 172.914 24.4933 172.466 24.696C172.029 24.8987 171.485 25 170.834 25H167.858ZM168.482 24.072H170.706C171.314 24.072 171.784 23.944 172.114 23.688C172.445 23.4213 172.61 23.0213 172.61 22.488C172.61 21.944 172.445 21.5493 172.114 21.304C171.784 21.048 171.314 20.92 170.706 20.92H168.482V24.072Z" fill="black"/>
</svg>
