<svg width="268" height="40" viewBox="0 0 268 40" fill="none" xmlns="http://www.w3.org/2000/svg">
<rect width="268" height="40" rx="12" fill="#F86310"/>
<path d="M77.628 25.144C76.5827 25.144 75.6707 24.9093 74.892 24.44C74.124 23.96 73.5267 23.288 73.1 22.424C72.684 21.56 72.476 20.536 72.476 19.352C72.476 18.456 72.5933 17.656 72.828 16.952C73.0733 16.2373 73.42 15.6347 73.868 15.144C74.316 14.6427 74.8547 14.2587 75.484 13.992C76.124 13.7147 76.8387 13.576 77.628 13.576C78.6947 13.576 79.612 13.8107 80.38 14.28C81.1587 14.7493 81.756 15.416 82.172 16.28C82.5987 17.1333 82.812 18.152 82.812 19.336C82.812 20.232 82.6893 21.0373 82.444 21.752C82.1987 22.4667 81.852 23.0747 81.404 23.576C80.956 24.0773 80.412 24.4667 79.772 24.744C79.1427 25.0107 78.428 25.144 77.628 25.144ZM77.628 23.976C78.4387 23.976 79.1213 23.7947 79.676 23.432C80.2413 23.0693 80.6733 22.5413 80.972 21.848C81.2707 21.1547 81.42 20.3227 81.42 19.352C81.42 17.8907 81.0893 16.76 80.428 15.96C79.7773 15.1493 78.844 14.744 77.628 14.744C76.8387 14.744 76.1613 14.9253 75.596 15.288C75.0413 15.6507 74.6147 16.1787 74.316 16.872C74.0173 17.5547 73.868 18.3813 73.868 19.352C73.868 20.8027 74.1987 21.9387 74.86 22.76C75.5213 23.5707 76.444 23.976 77.628 23.976ZM90.1176 27.992C89.915 27.992 89.755 27.9333 89.6376 27.816C89.531 27.6987 89.4776 27.528 89.4776 27.304V23.288H89.6216C89.4723 23.8747 89.2056 24.3333 88.8216 24.664C88.4376 24.984 87.963 25.144 87.3976 25.144C86.8323 25.144 86.3363 24.9787 85.9096 24.648C85.4936 24.3173 85.1683 23.848 84.9336 23.24C84.699 22.632 84.5816 21.9227 84.5816 21.112C84.5816 20.28 84.699 19.5653 84.9336 18.968C85.1683 18.36 85.4936 17.896 85.9096 17.576C86.3363 17.2453 86.8323 17.08 87.3976 17.08C87.9736 17.08 88.4483 17.2453 88.8216 17.576C89.2056 17.896 89.4723 18.3493 89.6216 18.936H89.4776V14.296C89.4776 14.072 89.531 13.9013 89.6376 13.784C89.755 13.6667 89.915 13.608 90.1176 13.608C90.331 13.608 90.491 13.6667 90.5976 13.784C90.715 13.9013 90.7736 14.072 90.7736 14.296V18.936H90.6136C90.7736 18.3493 91.0403 17.896 91.4136 17.576C91.7976 17.2453 92.2776 17.08 92.8536 17.08C93.419 17.08 93.9096 17.2453 94.3256 17.576C94.7523 17.896 95.083 18.36 95.3176 18.968C95.5523 19.5653 95.6696 20.28 95.6696 21.112C95.6696 21.9227 95.5523 22.632 95.3176 23.24C95.083 23.848 94.7576 24.3173 94.3416 24.648C93.9256 24.9787 93.4296 25.144 92.8536 25.144C92.2883 25.144 91.8136 24.984 91.4296 24.664C91.0456 24.3333 90.7736 23.8747 90.6136 23.288H90.7736V27.304C90.7736 27.528 90.7203 27.6987 90.6136 27.816C90.507 27.9333 90.3416 27.992 90.1176 27.992ZM87.6856 24.12C88.0696 24.12 88.395 24.008 88.6616 23.784C88.9283 23.5493 89.131 23.208 89.2696 22.76C89.419 22.312 89.4936 21.7627 89.4936 21.112C89.4936 20.1307 89.3283 19.384 88.9976 18.872C88.6776 18.36 88.2403 18.104 87.6856 18.104C87.323 18.104 87.003 18.2213 86.7256 18.456C86.459 18.68 86.251 19.016 86.1016 19.464C85.9523 19.912 85.8776 20.4613 85.8776 21.112C85.8776 21.7627 85.947 22.312 86.0856 22.76C86.235 23.208 86.4483 23.5493 86.7256 23.784C87.003 24.008 87.323 24.12 87.6856 24.12ZM92.5496 24.12C92.923 24.12 93.243 24.008 93.5096 23.784C93.787 23.5493 94.0003 23.208 94.1496 22.76C94.299 22.312 94.3736 21.7627 94.3736 21.112C94.3736 20.4613 94.2936 19.912 94.1336 19.464C93.9843 19.016 93.7763 18.68 93.5096 18.456C93.243 18.2213 92.923 18.104 92.5496 18.104C92.1763 18.104 91.8563 18.2213 91.5896 18.456C91.323 18.68 91.115 19.016 90.9656 19.464C90.827 19.912 90.7576 20.4613 90.7576 21.112C90.7576 22.104 90.9123 22.856 91.2216 23.368C91.5416 23.8693 91.9843 24.12 92.5496 24.12ZM101.012 25.144C100.255 25.144 99.599 24.9787 99.0444 24.648C98.4897 24.3173 98.0577 23.8533 97.7484 23.256C97.4497 22.648 97.3004 21.9333 97.3004 21.112C97.3004 20.4933 97.3857 19.9387 97.5564 19.448C97.727 18.9467 97.9777 18.52 98.3084 18.168C98.639 17.816 99.0284 17.5493 99.4764 17.368C99.935 17.176 100.447 17.08 101.012 17.08C101.77 17.08 102.426 17.2453 102.98 17.576C103.535 17.9067 103.962 18.376 104.26 18.984C104.57 19.5813 104.724 20.2907 104.724 21.112C104.724 21.7307 104.639 22.2853 104.468 22.776C104.298 23.2667 104.047 23.6933 103.716 24.056C103.386 24.408 102.991 24.68 102.532 24.872C102.084 25.0533 101.578 25.144 101.012 25.144ZM101.012 24.104C101.492 24.104 101.914 23.9867 102.276 23.752C102.639 23.5173 102.916 23.176 103.108 22.728C103.311 22.28 103.412 21.7413 103.412 21.112C103.412 20.1413 103.194 19.4 102.756 18.888C102.33 18.376 101.748 18.12 101.012 18.12C100.522 18.12 100.095 18.2373 99.7324 18.472C99.3804 18.696 99.103 19.032 98.9004 19.48C98.7084 19.9173 98.6124 20.4613 98.6124 21.112C98.6124 22.072 98.831 22.8133 99.2684 23.336C99.7057 23.848 100.287 24.104 101.012 24.104ZM107.483 27.992C107.27 27.992 107.11 27.9333 107.003 27.816C106.896 27.7093 106.843 27.5493 106.843 27.336V17.768C106.843 17.5547 106.896 17.3947 107.003 17.288C107.11 17.1707 107.264 17.112 107.467 17.112C107.68 17.112 107.84 17.1707 107.947 17.288C108.064 17.3947 108.123 17.5547 108.123 17.768V19.288L107.947 19.064C108.118 18.456 108.454 17.976 108.955 17.624C109.467 17.2613 110.075 17.08 110.779 17.08C111.472 17.08 112.075 17.2453 112.587 17.576C113.11 17.896 113.51 18.36 113.787 18.968C114.075 19.5653 114.219 20.28 114.219 21.112C114.219 21.9333 114.075 22.648 113.787 23.256C113.51 23.8533 113.115 24.3173 112.603 24.648C112.091 24.9787 111.483 25.144 110.779 25.144C110.075 25.144 109.472 24.968 108.971 24.616C108.47 24.2533 108.128 23.7733 107.947 23.176H108.139V27.336C108.139 27.5493 108.08 27.7093 107.963 27.816C107.846 27.9333 107.686 27.992 107.483 27.992ZM110.507 24.104C110.998 24.104 111.419 23.9867 111.771 23.752C112.134 23.5173 112.411 23.176 112.603 22.728C112.806 22.28 112.907 21.7413 112.907 21.112C112.907 20.1413 112.688 19.4 112.251 18.888C111.824 18.376 111.243 18.12 110.507 18.12C110.027 18.12 109.606 18.2373 109.243 18.472C108.88 18.696 108.598 19.032 108.395 19.48C108.203 19.9173 108.107 20.4613 108.107 21.112C108.107 22.072 108.326 22.8133 108.763 23.336C109.2 23.848 109.782 24.104 110.507 24.104ZM116.887 25.112C116.706 25.112 116.562 25.0587 116.455 24.952C116.359 24.8347 116.311 24.68 116.311 24.488V17.8C116.311 17.6507 116.333 17.528 116.375 17.432C116.418 17.3253 116.482 17.2453 116.567 17.192C116.653 17.1387 116.759 17.112 116.887 17.112C117.015 17.112 117.122 17.1333 117.207 17.176C117.293 17.208 117.367 17.2613 117.431 17.336C117.495 17.4 117.549 17.48 117.591 17.576L120.311 22.424L123.031 17.576C123.074 17.48 123.127 17.4 123.191 17.336C123.255 17.2613 123.33 17.208 123.415 17.176C123.501 17.1333 123.602 17.112 123.719 17.112C123.911 17.112 124.055 17.1707 124.151 17.288C124.247 17.3947 124.295 17.5653 124.295 17.8V24.488C124.295 24.68 124.247 24.8347 124.151 24.952C124.055 25.0587 123.911 25.112 123.719 25.112C123.538 25.112 123.394 25.0587 123.287 24.952C123.191 24.8347 123.143 24.68 123.143 24.488V18.712H123.511L120.775 23.512C120.733 23.5973 120.674 23.672 120.599 23.736C120.525 23.7893 120.429 23.816 120.311 23.816C120.183 23.816 120.082 23.784 120.007 23.72C119.943 23.656 119.885 23.5867 119.831 23.512L117.095 18.712H117.463V24.488C117.463 24.68 117.41 24.8347 117.303 24.952C117.207 25.0587 117.069 25.112 116.887 25.112ZM127.45 25.112C127.333 25.112 127.226 25.0853 127.13 25.032C127.045 24.9893 126.975 24.9147 126.922 24.808C126.879 24.7013 126.858 24.568 126.858 24.408V17.752C126.858 17.5387 126.911 17.3787 127.018 17.272C127.125 17.1653 127.269 17.112 127.45 17.112C127.642 17.112 127.786 17.1653 127.882 17.272C127.989 17.3787 128.042 17.5387 128.042 17.752V23.768H127.642L132.298 17.528C132.383 17.4107 132.485 17.3147 132.602 17.24C132.719 17.1547 132.869 17.112 133.05 17.112C133.178 17.112 133.285 17.1333 133.37 17.176C133.455 17.2187 133.519 17.2933 133.562 17.4C133.615 17.496 133.642 17.6293 133.642 17.8V24.472C133.642 24.6747 133.589 24.8347 133.482 24.952C133.386 25.0587 133.242 25.112 133.05 25.112C132.858 25.112 132.709 25.0587 132.602 24.952C132.506 24.8347 132.458 24.6747 132.458 24.472V18.44H132.858L128.186 24.696C128.111 24.8027 128.015 24.8987 127.898 24.984C127.791 25.0693 127.642 25.112 127.45 25.112ZM138.474 25.112C138.271 25.112 138.111 25.0533 137.994 24.936C137.877 24.8187 137.818 24.6533 137.818 24.44V18.264H135.482C135.077 18.264 134.874 18.088 134.874 17.736C134.874 17.576 134.927 17.4533 135.034 17.368C135.141 17.272 135.29 17.224 135.482 17.224H141.466C141.861 17.224 142.058 17.3947 142.058 17.736C142.058 17.9067 142.005 18.04 141.898 18.136C141.802 18.2213 141.658 18.264 141.466 18.264H139.114V24.44C139.114 24.6533 139.061 24.8187 138.954 24.936C138.858 25.0533 138.698 25.112 138.474 25.112ZM143.983 25C143.77 25 143.605 24.9413 143.487 24.824C143.37 24.7067 143.311 24.5413 143.311 24.328V17.768C143.311 17.544 143.365 17.3787 143.471 17.272C143.589 17.1653 143.754 17.112 143.967 17.112C144.17 17.112 144.325 17.1653 144.431 17.272C144.549 17.3787 144.607 17.544 144.607 17.768V19.992H146.959C147.951 19.992 148.703 20.2107 149.215 20.648C149.727 21.0747 149.983 21.6827 149.983 22.472C149.983 22.9947 149.861 23.448 149.615 23.832C149.381 24.2053 149.039 24.4933 148.591 24.696C148.154 24.8987 147.61 25 146.959 25H143.983ZM144.607 24.072H146.831C147.439 24.072 147.909 23.944 148.239 23.688C148.57 23.4213 148.735 23.0213 148.735 22.488C148.735 21.944 148.57 21.5493 148.239 21.304C147.909 21.048 147.439 20.92 146.831 20.92H144.607V24.072ZM158.606 25.144C158.051 25.144 157.513 25.08 156.99 24.952C156.467 24.824 156.019 24.6373 155.646 24.392C155.518 24.3067 155.427 24.2107 155.374 24.104C155.331 23.9973 155.315 23.8907 155.326 23.784C155.337 23.6773 155.374 23.5867 155.438 23.512C155.513 23.4373 155.609 23.3947 155.726 23.384C155.854 23.3627 155.987 23.4 156.126 23.496C156.467 23.7093 156.851 23.8693 157.278 23.976C157.715 24.0827 158.147 24.136 158.574 24.136C159.353 24.136 159.907 24.024 160.238 23.8C160.569 23.5653 160.734 23.2347 160.734 22.808C160.734 22.392 160.59 22.0773 160.302 21.864C160.025 21.6507 159.63 21.544 159.118 21.544H157.726C157.555 21.544 157.417 21.5013 157.31 21.416C157.214 21.32 157.166 21.1973 157.166 21.048C157.166 20.8987 157.214 20.7813 157.31 20.696C157.417 20.6107 157.555 20.568 157.726 20.568H158.958C159.417 20.568 159.779 20.4613 160.046 20.248C160.323 20.0347 160.462 19.7413 160.462 19.368C160.462 18.9733 160.318 18.664 160.03 18.44C159.742 18.2053 159.257 18.088 158.574 18.088C158.158 18.088 157.758 18.136 157.374 18.232C156.99 18.3173 156.622 18.4613 156.27 18.664C156.078 18.76 155.918 18.792 155.79 18.76C155.662 18.7173 155.566 18.6373 155.502 18.52C155.438 18.4027 155.427 18.2747 155.47 18.136C155.513 17.9973 155.614 17.8853 155.774 17.8C156.19 17.5547 156.649 17.3733 157.15 17.256C157.651 17.1387 158.179 17.08 158.734 17.08C159.715 17.08 160.451 17.272 160.942 17.656C161.443 18.04 161.694 18.5787 161.694 19.272C161.694 19.7627 161.523 20.1787 161.182 20.52C160.841 20.8613 160.387 21.064 159.822 21.128V20.92C160.473 20.9413 160.99 21.128 161.374 21.48C161.769 21.8213 161.966 22.28 161.966 22.856C161.966 23.5493 161.683 24.104 161.118 24.52C160.553 24.936 159.715 25.144 158.606 25.144ZM166.447 25.144C165.914 25.144 165.434 25.0427 165.007 24.84C164.591 24.6267 164.26 24.3387 164.015 23.976C163.77 23.6133 163.647 23.208 163.647 22.76C163.647 22.184 163.791 21.7307 164.079 21.4C164.378 21.0693 164.863 20.8347 165.535 20.696C166.218 20.5573 167.146 20.488 168.319 20.488H169.039V21.336H168.335C167.471 21.336 166.788 21.3787 166.287 21.464C165.796 21.5387 165.45 21.672 165.247 21.864C165.055 22.056 164.959 22.328 164.959 22.68C164.959 23.1173 165.108 23.4747 165.407 23.752C165.716 24.0293 166.132 24.168 166.655 24.168C167.082 24.168 167.455 24.0667 167.775 23.864C168.106 23.6613 168.362 23.384 168.543 23.032C168.735 22.68 168.831 22.2747 168.831 21.816V19.992C168.831 19.3307 168.698 18.856 168.431 18.568C168.164 18.2693 167.727 18.12 167.119 18.12C166.746 18.12 166.372 18.168 165.999 18.264C165.626 18.36 165.231 18.5147 164.815 18.728C164.666 18.8027 164.538 18.8293 164.431 18.808C164.324 18.776 164.239 18.7173 164.175 18.632C164.111 18.5467 164.074 18.4507 164.063 18.344C164.052 18.2267 164.074 18.1147 164.127 18.008C164.191 17.9013 164.287 17.816 164.415 17.752C164.884 17.5173 165.348 17.3467 165.807 17.24C166.266 17.1333 166.703 17.08 167.119 17.08C167.791 17.08 168.346 17.192 168.783 17.416C169.22 17.6293 169.546 17.96 169.759 18.408C169.972 18.8453 170.079 19.4107 170.079 20.104V24.44C170.079 24.6533 170.026 24.8187 169.919 24.936C169.823 25.0533 169.679 25.112 169.487 25.112C169.284 25.112 169.13 25.0533 169.023 24.936C168.916 24.8187 168.863 24.6533 168.863 24.44V23.192H169.007C168.922 23.5973 168.756 23.944 168.511 24.232C168.276 24.52 167.983 24.744 167.631 24.904C167.279 25.064 166.884 25.144 166.447 25.144ZM173.264 25.112C173.051 25.112 172.885 25.0533 172.768 24.936C172.661 24.8187 172.608 24.6533 172.608 24.44V17.816C172.608 17.592 172.661 17.4267 172.768 17.32C172.885 17.2027 173.051 17.144 173.264 17.144C173.467 17.144 173.621 17.2027 173.728 17.32C173.845 17.4267 173.904 17.592 173.904 17.816V20.472H175.36L177.728 17.432C177.835 17.304 177.952 17.224 178.08 17.192C178.208 17.1493 178.325 17.1493 178.432 17.192C178.549 17.224 178.64 17.288 178.704 17.384C178.779 17.4693 178.816 17.576 178.816 17.704C178.816 17.832 178.768 17.9653 178.672 18.104L176.416 21L176.048 20.584C176.347 20.616 176.608 20.6907 176.832 20.808C177.056 20.9253 177.269 21.1013 177.472 21.336C177.675 21.5707 177.893 21.896 178.128 22.312L179.28 24.216C179.355 24.3653 179.381 24.4987 179.36 24.616C179.349 24.7333 179.296 24.84 179.2 24.936C179.104 25.0213 178.992 25.0747 178.864 25.096C178.747 25.1173 178.629 25.1013 178.512 25.048C178.395 24.9947 178.288 24.8987 178.192 24.76L176.928 22.648C176.747 22.3493 176.576 22.12 176.416 21.96C176.256 21.7893 176.075 21.672 175.872 21.608C175.669 21.544 175.419 21.512 175.12 21.512H173.904V24.44C173.904 24.6533 173.845 24.8187 173.728 24.936C173.621 25.0533 173.467 25.112 173.264 25.112ZM183.494 25.144C182.961 25.144 182.481 25.0427 182.054 24.84C181.638 24.6267 181.307 24.3387 181.062 23.976C180.817 23.6133 180.694 23.208 180.694 22.76C180.694 22.184 180.838 21.7307 181.126 21.4C181.425 21.0693 181.91 20.8347 182.582 20.696C183.265 20.5573 184.193 20.488 185.366 20.488H186.086V21.336H185.382C184.518 21.336 183.835 21.3787 183.334 21.464C182.843 21.5387 182.497 21.672 182.294 21.864C182.102 22.056 182.006 22.328 182.006 22.68C182.006 23.1173 182.155 23.4747 182.454 23.752C182.763 24.0293 183.179 24.168 183.702 24.168C184.129 24.168 184.502 24.0667 184.822 23.864C185.153 23.6613 185.409 23.384 185.59 23.032C185.782 22.68 185.878 22.2747 185.878 21.816V19.992C185.878 19.3307 185.745 18.856 185.478 18.568C185.211 18.2693 184.774 18.12 184.166 18.12C183.793 18.12 183.419 18.168 183.046 18.264C182.673 18.36 182.278 18.5147 181.862 18.728C181.713 18.8027 181.585 18.8293 181.478 18.808C181.371 18.776 181.286 18.7173 181.222 18.632C181.158 18.5467 181.121 18.4507 181.11 18.344C181.099 18.2267 181.121 18.1147 181.174 18.008C181.238 17.9013 181.334 17.816 181.462 17.752C181.931 17.5173 182.395 17.3467 182.854 17.24C183.313 17.1333 183.75 17.08 184.166 17.08C184.838 17.08 185.393 17.192 185.83 17.416C186.267 17.6293 186.593 17.96 186.806 18.408C187.019 18.8453 187.126 19.4107 187.126 20.104V24.44C187.126 24.6533 187.073 24.8187 186.966 24.936C186.87 25.0533 186.726 25.112 186.534 25.112C186.331 25.112 186.177 25.0533 186.07 24.936C185.963 24.8187 185.91 24.6533 185.91 24.44V23.192H186.054C185.969 23.5973 185.803 23.944 185.558 24.232C185.323 24.52 185.03 24.744 184.678 24.904C184.326 25.064 183.931 25.144 183.494 25.144ZM192.231 25.144C191.676 25.144 191.138 25.08 190.615 24.952C190.092 24.824 189.644 24.6373 189.271 24.392C189.143 24.3067 189.052 24.2107 188.999 24.104C188.956 23.9973 188.94 23.8907 188.951 23.784C188.962 23.6773 188.999 23.5867 189.063 23.512C189.138 23.4373 189.234 23.3947 189.351 23.384C189.479 23.3627 189.612 23.4 189.751 23.496C190.092 23.7093 190.476 23.8693 190.903 23.976C191.34 24.0827 191.772 24.136 192.199 24.136C192.978 24.136 193.532 24.024 193.863 23.8C194.194 23.5653 194.359 23.2347 194.359 22.808C194.359 22.392 194.215 22.0773 193.927 21.864C193.65 21.6507 193.255 21.544 192.743 21.544H191.351C191.18 21.544 191.042 21.5013 190.935 21.416C190.839 21.32 190.791 21.1973 190.791 21.048C190.791 20.8987 190.839 20.7813 190.935 20.696C191.042 20.6107 191.18 20.568 191.351 20.568H192.583C193.042 20.568 193.404 20.4613 193.671 20.248C193.948 20.0347 194.087 19.7413 194.087 19.368C194.087 18.9733 193.943 18.664 193.655 18.44C193.367 18.2053 192.882 18.088 192.199 18.088C191.783 18.088 191.383 18.136 190.999 18.232C190.615 18.3173 190.247 18.4613 189.895 18.664C189.703 18.76 189.543 18.792 189.415 18.76C189.287 18.7173 189.191 18.6373 189.127 18.52C189.063 18.4027 189.052 18.2747 189.095 18.136C189.138 17.9973 189.239 17.8853 189.399 17.8C189.815 17.5547 190.274 17.3733 190.775 17.256C191.276 17.1387 191.804 17.08 192.359 17.08C193.34 17.08 194.076 17.272 194.567 17.656C195.068 18.04 195.319 18.5787 195.319 19.272C195.319 19.7627 195.148 20.1787 194.807 20.52C194.466 20.8613 194.012 21.064 193.447 21.128V20.92C194.098 20.9413 194.615 21.128 194.999 21.48C195.394 21.8213 195.591 22.28 195.591 22.856C195.591 23.5493 195.308 24.104 194.743 24.52C194.178 24.936 193.34 25.144 192.231 25.144Z" fill="white"/>
</svg>
